<mxfile host="app.diagrams.net" modified="2023-11-21T09:05:51.284Z" agent="Mozilla/5.0 (Windows NT 10.0; Win64; x64) AppleWebKit/537.36 (KHTML, like Gecko) Chrome/119.0.0.0 Safari/537.36" etag="_uE2NGVnT9fUA2DhYhYU" version="22.1.3" type="github">
  <diagram name="Page-1" id="6AMSyOJuj6a4CMraq-DB">
    <mxGraphModel dx="2625" dy="1435" grid="1" gridSize="10" guides="1" tooltips="1" connect="1" arrows="1" fold="1" page="1" pageScale="1" pageWidth="827" pageHeight="1169" math="0" shadow="0">
      <root>
        <mxCell id="0" />
        <mxCell id="1" parent="0" />
        <mxCell id="JCe0ZTddFQwnsQw1nduG-1" value="" style="rounded=0;whiteSpace=wrap;html=1;fillColor=default;fillStyle=hatch;" vertex="1" parent="1">
          <mxGeometry x="30" y="120" width="1920" height="1080" as="geometry" />
        </mxCell>
        <mxCell id="JCe0ZTddFQwnsQw1nduG-3" value="" style="rounded=0;whiteSpace=wrap;html=1;fillColor=default;fillStyle=hatch;" vertex="1" parent="1">
          <mxGeometry x="30" y="2338" width="1920" height="1080" as="geometry" />
        </mxCell>
        <mxCell id="JCe0ZTddFQwnsQw1nduG-4" value="" style="rounded=0;whiteSpace=wrap;html=1;fillColor=default;fillStyle=hatch;" vertex="1" parent="1">
          <mxGeometry x="30" y="1230" width="1920" height="1080" as="geometry" />
        </mxCell>
      </root>
    </mxGraphModel>
  </diagram>
</mxfile>
